HIERARCHY
ROOT hip
{
  OFFSET 0 0 0
  CHANNELS 6 Xposition Yposition Zposition Zrotation Yrotation Xrotation
  JOINT abdomen
  {
    OFFSET 0 20.6881 -0.73152
    CHANNELS 3 Zrotation Xrotation Yrotation
    JOINT chest
    {
      OFFSET 0 11.7043 -0.48768
      CHANNELS 3 Zrotation Xrotation Yrotation
      JOINT neck
      {
        OFFSET 0 22.1894 -2.19456
        CHANNELS 3 Zrotation Xrotation Yrotation
        JOINT head
        {
          OFFSET -0.24384 7.07133 1.2192
          CHANNELS 3 Zrotation Xrotation Yrotation
          JOINT leftEye
          {
            OFFSET 4.14528 8.04674 8.04672
            CHANNELS 3 Zrotation Xrotation Yrotation
            End Site
            {
              OFFSET 1 0 0
            }
          }
          JOINT rightEye
          {
            OFFSET -3.6576 8.04674 8.04672
            CHANNELS 3 Zrotation Xrotation Yrotation
            End Site
            {
              OFFSET 1 0 0
            }
          }
        }
      }
      JOINT rCollar
      {
        OFFSET -2.68224 19.2634 -4.8768
        CHANNELS 3 Zrotation Xrotation Yrotation
        JOINT rShldr
        {
          OFFSET -8.77824 -1.95073 1.46304
          CHANNELS 3 Zrotation Xrotation Yrotation
          JOINT rForeArm
          {
            OFFSET -28.1742 -1.7115 0.48768
            CHANNELS 3 Zrotation Xrotation Yrotation
            JOINT rHand
            {
              OFFSET -22.5879 0.773209 7.07136
              CHANNELS 3 Zrotation Xrotation Yrotation
              JOINT rThumb1
              {
                OFFSET -1.2192 -0.487915 3.41376
                CHANNELS 3 Zrotation Xrotation Yrotation
                JOINT rThumb2
                {
                  OFFSET -3.37035 -0.52449 3.41376
                  CHANNELS 3 Zrotation Xrotation Yrotation
                  End Site
                  {
                    OFFSET -1.78271 -1.18214 1.43049
                  }
                }
              }
              JOINT rIndex1
              {
                OFFSET -7.75947 0.938293 5.60832
                CHANNELS 3 Zrotation Xrotation Yrotation
                JOINT rIndex2
                {
                  OFFSET -2.54057 -0.884171 1.56538
                  CHANNELS 3 Zrotation Xrotation Yrotation
                  End Site
                  {
                    OFFSET -1.62519 -0.234802 1.16502
                  }
                }
              }
              JOINT rMid1
              {
                OFFSET -8.24714 1.18213 3.41376
                CHANNELS 3 Zrotation Xrotation Yrotation
                JOINT rMid2
                {
                  OFFSET -3.10165 -0.590103 1.0647
                  CHANNELS 3 Zrotation Xrotation Yrotation
                  End Site
                  {
                    OFFSET -2.48547 -0.328903 0.83742
                  }
                }
              }
              JOINT rRing1
              {
                OFFSET -8.82822 0.546677 1.51678
                CHANNELS 3 Zrotation Xrotation Yrotation
                JOINT rRing2
                {
                  OFFSET -2.60934 -0.819778 -0.0198488
                  CHANNELS 3 Zrotation Xrotation Yrotation
                  End Site
                  {
                    OFFSET -2.33842 -0.294052 0.168128
                  }
                }
              }
              JOINT rPinky1
              {
                OFFSET -8.27202 -0.0477905 -0.4584
                CHANNELS 3 Zrotation Xrotation Yrotation
                JOINT rPinky2
                {
                  OFFSET -1.82734 -0.647385 -0.700984
                  CHANNELS 3 Zrotation Xrotation Yrotation
                  End Site
                  {
                    OFFSET -1.69225 -0.51767 -0.607171
                  }
                }
              }
            }
          }
        }
      }
      JOINT lCollar
      {
        OFFSET 2.68224 19.2634 -4.8768
        CHANNELS 3 Zrotation Xrotation Yrotation
        JOINT lShldr
        {
          OFFSET 8.77824 -1.95073 1.46304
          CHANNELS 3 Zrotation Xrotation Yrotation
          JOINT lForeArm
          {
            OFFSET 28.1742 -1.7115 0.48768
            CHANNELS 3 Zrotation Xrotation Yrotation
            JOINT lHand
            {
              OFFSET 22.5879 0.773209 7.07136
              CHANNELS 3 Zrotation Xrotation Yrotation
              JOINT lThumb1
              {
                OFFSET 1.2192 -0.487915 3.41376
                CHANNELS 3 Zrotation Xrotation Yrotation
                JOINT lThumb2
                {
                  OFFSET 3.37035 -0.52449 3.41376
                  CHANNELS 3 Zrotation Xrotation Yrotation
                  End Site
                  {
                    OFFSET 1.78271 -1.18214 1.43049
                  }
                }
              }
              JOINT lIndex1
              {
                OFFSET 7.75947 0.938293 5.60832
                CHANNELS 3 Zrotation Xrotation Yrotation
                JOINT lIndex2
                {
                  OFFSET 2.54057 -0.884171 1.56538
                  CHANNELS 3 Zrotation Xrotation Yrotation
                  End Site
                  {
                    OFFSET 1.62519 -0.234802 1.16502
                  }
                }
              }
              JOINT lMid1
              {
                OFFSET 8.24714 1.18213 3.41376
                CHANNELS 3 Zrotation Xrotation Yrotation
                JOINT lMid2
                {
                  OFFSET 3.10165 -0.590103 1.0647
                  CHANNELS 3 Zrotation Xrotation Yrotation
                  End Site
                  {
                    OFFSET 2.48547 -0.328903 0.83742
                  }
                }
              }
              JOINT lRing1
              {
                OFFSET 8.82822 0.546677 1.51678
                CHANNELS 3 Zrotation Xrotation Yrotation
                JOINT lRing2
                {
                  OFFSET 2.60934 -0.819778 -0.0198488
                  CHANNELS 3 Zrotation Xrotation Yrotation
                  End Site
                  {
                    OFFSET 2.33842 -0.294052 0.168128
                  }
                }
              }
              JOINT lPinky1
              {
                OFFSET 8.27202 -0.0477905 -0.4584
                CHANNELS 3 Zrotation Xrotation Yrotation
                JOINT lPinky2
                {
                  OFFSET 1.82734 -0.647385 -0.700984
                  CHANNELS 3 Zrotation Xrotation Yrotation
                  End Site
                  {
                    OFFSET 1.69225 -0.51767 -0.607171
                  }
                }
              }
            }
          }
        }
      }
    }
  }
  JOINT rButtock
  {
    OFFSET -8.77824 4.35084 1.2192
    CHANNELS 3 Zrotation Xrotation Yrotation
    JOINT rThigh
    {
      OFFSET 0 -1.70687 -2.19456
      CHANNELS 3 Zrotation Xrotation Yrotation
      JOINT rShin
      {
        OFFSET 0 -36.8199 0.73152
        CHANNELS 3 Zrotation Xrotation Yrotation
        JOINT rFoot
        {
          OFFSET 0.73152 -45.1104 -5.12064
          CHANNELS 3 Zrotation Xrotation Yrotation
          End Site
          {
            OFFSET -1.1221 -3.69964 12.103
          }
        }
      }
    }
  }
  JOINT lButtock
  {
    OFFSET 8.77824 4.35084 1.2192
    CHANNELS 3 Zrotation Xrotation Yrotation
    JOINT lThigh
    {
      OFFSET 0 -1.70687 -2.19456
      CHANNELS 3 Zrotation Xrotation Yrotation
      JOINT lShin
      {
        OFFSET 0 -36.8199 0.73152
        CHANNELS 3 Zrotation Xrotation Yrotation
        JOINT lFoot
        {
          OFFSET -0.73152 -45.1104 -5.12064
          CHANNELS 3 Zrotation Xrotation Yrotation
          End Site
          {
            OFFSET 1.1221 -3.69964 12.103
          }
        }
      }
    }
  }
}
MOTION
Frames:	8
Frame Time:	0.03333
7.375800000000001 51.495999999999995 0.21059999999999998 -0.138146 31.831154 6.150342 -20.018718 13.344944 -122.35465 89.237288 11.780434 133.078602 -175.802487 7.319472 68.692559 -42.095695 13.881995 149.916032 -12.124127 5.596327 -49.426452 -14.049245 -3.116597 24.8996 11.513615 -8.906681 -107.834817 -86.364885 -72.807771 -93.079463 3.402284 -5.048481 -74.148894 175.584206 -5.57026 149.178092 133.112888 -61.942342 43.226255 0.237667 -50.009607 -0.839815 -114.882411 -24.893624 135.034799 16.250701 -46.397884 14.794324 8.300831 -79.168017 -93.836504 -175.804717 -13.500889 100.818686 60.010465 4.917954 -15.240753 -151.934469 -88.009649 -156.030983 -11.593885 -36.798705 -33.70207 -125.973399 22.578373 -130.781514 172.535174 -10.796804 -123.486055 -71.535891 -42.591087 -77.991654 -178.530435 17.37205 -105.716746 -154.183801 -4.995536 -148.65798 -6.20612 5.05266 2.146859 149.40277 -76.907048 -111.622438 58.957308 52.943972 -70.910319 174.076553 1.489301 -129.279955 148.396497 -11.974151 -139.39597 162.385824 36.64311 -129.331551 -15.175186 -7.867315 -4.204574 160.424067 -25.293289 175.801562 104.213599 2.019642 148.621462 141.488144 10.834538 144.28281 -98.595197 30.355017 -46.496013 153.638018 2.622915 -95.275833 -72.882337 -36.170738 27.464188 -120.179295 -45.207652 -38.093557 -77.95082 42.827821 -49.476509 60.39091 15.160534 -112.119857 -42.961288 -66.603461 -83.390885 -54.488375 -37.986253 -76.277098
6.994400000000001 43.3414 0.0924 -0.266568 31.879632 5.903128 -18.564026 14.94563 -90.52919 83.173713 -18.257241 127.13868 168.691387 9.227573 -53.805929 5.333833 -35.779004 -97.616366 -19.521544 7.904877 -43.765069 3.004946 1.582228 55.529473 88.552626 6.899861 -74.191904 -55.881753 86.045871 91.273611 -53.108503 1.38394 -16.596744 76.232025 -72.064641 65.135046 -5.008439 40.968104 12.534247 8.721751 -17.027418 -1.625409 43.195798 -24.787794 -18.717391 -108.634885 80.717323 111.309268 -25.030803 79.051478 90.400812 -12.342955 -28.841673 -48.08575 -86.023801 10.394885 -166.673375 -126.131844 -44.836881 -166.944562 -62.427736 -40.768617 -88.458288 77.371961 54.232912 -35.683159 -84.170077 -60.920116 -71.947506 147.114999 -79.207169 123.948535 52.252805 -86.825726 15.785593 -16.336133 17.410154 -1.958816 152.174641 -0.765735 -91.784401 -61.637172 -66.477523 -59.870641 -20.878857 14.777794 3.295208 8.865075 -0.972362 -4.997135 -93.281814 -75.067075 -53.881851 18.735704 -64.865622 42.820287 58.555746 -80.727173 87.299687 -4.103958 3.572166 4.554955 -12.880458 -48.979722 22.217833 155.38601 8.840477 152.029019 -68.765744 7.538009 -25.71819 120.390878 -18.625174 -132.342006 7.124961 -72.113476 168.063497 45.471749 -39.317105 13.949736 -175.639304 74.654316 0.0 113.35642 51.683667 -108.71732 -15.52281 -70.860591 46.676457 77.580039 61.0674 120.015639
6.586500000000001 32.5525 -0.15039999999999998 -0.057892 31.896787 5.450653 -19.007252 17.905912 5.267386 -46.59192 -65.511034 -25.354906 -165.657137 17.16286 117.055893 31.813725 61.6433 53.034251 -13.502671 4.38618 -35.851868 -4.541098 0.275335 -6.935781 134.747043 43.390711 -85.298066 20.513469 17.839917 25.990699 147.291321 54.745537 137.630135 -176.659081 17.153557 146.707807 -162.797318 -43.260969 93.762605 -45.096637 -8.896877 5.165292 -159.584882 -82.542328 115.059446 -166.335283 -62.607437 158.131903 -86.366288 0.041185 159.389073 -59.892486 74.613992 93.351684 38.430361 79.833861 32.912295 -170.645782 47.204752 -169.239423 21.029345 -27.265257 -24.621645 -136.459319 67.068932 177.831935 149.96229 4.923005 -147.874902 -65.557051 -46.749121 -69.034665 105.053917 40.196244 -60.597052 -103.963679 -48.135652 -94.091305 160.861263 -16.272054 -94.591926 39.574618 -28.23477 -2.923569 72.92368 45.074362 -88.593986 -1.682578 13.772862 7.99304 -90.574332 -79.007102 -55.858595 171.535253 32.814032 -172.74747 137.752865 -2.529756 -175.772009 143.759289 76.975237 -149.401139 26.919294 -50.75849 51.667273 86.078606 -67.107332 84.381724 -102.93829 29.833991 -44.875431 157.03868 1.370392 -93.230774 -82.16163 -28.329086 -74.693958 146.875121 -35.340336 -162.282444 33.128733 5.336937 15.94057 -64.92194 11.819407 113.964345 60.853987 -42.661077 -24.40329 -136.600049 13.48054 -36.600294
6.1858 26.0474 -0.3202 0.26653 31.298836 5.690977 -15.065511 15.90224 -0.0 -16.443059 -58.976762 -3.544763 -173.3623 26.794154 171.592851 58.667074 15.968724 1.051987 1.156022 -0.363842 -34.940324 -2.778255 1.047918 -41.32516 121.679758 55.797616 -80.526229 -72.804143 64.319636 102.204974 -157.118611 -44.78677 -129.342437 3.742757 -10.73094 2.843923 112.779584 -62.188198 27.564409 13.301443 -62.287277 -3.312959 -122.019401 -41.561774 136.38607 -167.78619 40.581243 112.300364 -86.70346 -31.621742 164.161619 56.718446 -2.343649 3.028687 -97.530622 1.479029 -171.516866 -151.153771 -1.332247 173.41646 -99.224973 34.247212 -150.7046 30.065662 13.467915 0.85249 -12.336885 -12.029074 3.944139 138.835066 -25.140666 155.534703 99.224634 -44.28895 83.396655 -32.095205 -22.728259 -16.32785 -174.582579 -44.517009 -85.492697 -139.9246 -74.839057 -108.48124 5.622813 43.575608 -21.075631 0.901822 19.567443 -8.529787 170.026555 -68.606821 -141.285152 -2.738534 64.795307 31.310373 -11.092526 0.448483 -0.180668 -6.117334 38.514342 -9.628973 70.846875 -43.176966 83.817673 115.743673 -27.241635 124.829523 141.579032 75.906112 -0.0 -132.276917 -9.098512 -79.249874 -79.808293 37.621527 -84.735256 95.446907 -28.115439 155.179443 -86.33899 57.099563 -44.0185 70.374939 9.465192 -180.0 56.671675 -34.45652 -52.175422 -79.794496 -61.474372 -43.004983
5.858 26.0795 -0.3368 0.220163 32.205478 6.05298 -13.793218 14.042837 2.841476 -18.617224 -55.903486 -8.834683 -171.032355 17.063305 79.425981 -24.419858 53.103394 123.623172 4.649328 -1.486736 -35.44951 3.106418 -1.457296 -50.25641 31.003449 -7.633779 -53.708331 25.779239 42.668832 -14.144221 -177.178074 0.049262 103.807103 173.049525 -3.778054 147.892485 -112.738165 24.549674 98.074832 2.815822 -22.211085 -0.878251 28.532471 8.609869 -10.346726 -15.379447 61.958191 41.3548 -75.177209 55.481698 140.140938 -109.875035 -38.176899 -145.42178 -98.761662 9.378644 -171.503797 -150.60613 -5.518333 -178.50541 -105.002782 65.155408 -162.462841 -119.434586 -25.010974 -120.894198 117.882539 -76.467609 154.047095 26.546101 -42.959496 13.489718 -79.232892 32.378388 115.370433 -164.556174 48.004256 -162.254204 -85.743376 -52.939745 -16.885786 21.564914 -7.810585 14.945196 106.458941 24.117471 -114.938471 0.436552 -0.651438 0.890485 -22.092064 5.115295 2.126481 -35.665205 -22.145637 7.280281 127.994714 1.57092 177.297571 155.716593 77.214938 -178.246836 -37.76708 38.831006 -0.4175 140.991419 -7.375382 152.578531 -38.502384 -0.425216 0.0 91.409971 -44.576269 -89.010299 -75.300704 -54.167694 2.721776 -162.720455 -16.96836 -64.097008 6.85172 3.410214 -9.28066 -42.818623 -9.887185 79.959851 58.615797 -0.683031 -83.237531 -152.146021 2.165275 -88.167079
5.6314 31.736700000000003 -0.329 0.060054 32.569744 5.865168 -13.649873 11.346007 -129.011373 62.328753 25.215108 119.900969 -171.488648 16.595726 97.683804 -16.902556 54.348879 106.562346 1.566528 -0.54351 -38.266718 6.141873 -3.11894 -53.811464 -62.858684 -26.24781 -117.04346 166.735641 -44.420191 173.099056 102.022284 -65.367784 139.040397 -6.997194 27.037535 2.489869 14.03666 32.921893 -6.297751 -151.38249 -9.78659 101.878202 -108.689364 28.147912 116.038881 0.179715 -25.967261 29.620148 69.920199 1.971487 -14.782458 -83.114542 53.510581 24.267184 -94.498975 1.520482 -166.494904 -16.544722 88.684378 46.133261 24.415755 -7.929479 -7.841016 -136.480197 61.645853 -168.321877 -10.048426 -12.907198 7.925427 -39.140978 44.794567 27.708144 81.536865 35.530076 -94.872869 -38.42304 -31.992609 -23.328637 171.902078 -34.425145 -90.778514 -152.516295 -60.641325 -116.532444 -4.51472 29.698764 -7.334269 -1.765703 8.248783 -4.562971 159.038279 -71.59084 -142.435839 150.113691 -74.161933 165.772952 44.828379 78.686259 -80.203876 19.040078 -44.970849 25.622421 86.645498 -36.191371 111.964115 46.023107 -39.81411 44.384081 143.008207 76.385458 -0.0 -135.284191 -7.971228 101.96009 72.410742 -48.417368 -12.183283 149.777639 45.507164 111.123283 6.114072 2.361772 -8.1622 -39.154643 -8.197629 -91.193417 -59.522672 1.859098 35.84907 -133.192062 16.658254 -120.116688
5.4411000000000005 41.8735 -0.3527 -0.223551 32.135868 5.875617 -19.104446 18.073054 5.351479 -74.748432 -72.945127 -55.678674 169.436006 5.64354 -59.918302 10.305806 -37.787138 -92.404444 -5.014296 2.290041 -49.070699 8.135361 -4.389438 -56.641101 59.216321 16.777307 -70.303197 -139.448075 -35.835362 -163.696483 112.882646 29.464333 -109.594047 -33.679088 63.296335 19.597937 31.073032 7.206953 -13.442321 -152.22885 -19.194557 105.351442 -118.659554 10.282561 121.476082 175.60862 17.162467 85.352317 62.503143 50.636922 -0.692883 -28.868099 11.104613 -36.79768 52.83533 2.050558 -12.303392 -21.311843 43.504547 9.233525 -72.102425 -39.542718 -83.925036 15.995617 -2.207342 -29.20094 -3.301606 -10.912704 -3.4559 -11.295737 -1.832446 28.157727 -62.958659 -80.86226 19.318543 -153.213005 -8.453965 -143.028744 68.928774 41.808195 -48.879196 -88.7699 -43.064259 -40.483081 0.027138 32.055338 -13.258253 -1.141733 -10.684135 0.606093 162.659829 -65.857721 -135.221458 18.142571 -63.617312 28.999087 -18.896428 -1.478166 7.195117 170.041055 -3.411826 -153.487717 116.51373 49.381324 156.359251 5.488664 2.724228 -8.745067 -34.784798 -1.139527 0.0 84.477837 -44.06478 -19.522585 -83.910839 23.448227 -81.776064 -170.500172 -12.601663 -129.633832 3.823198 2.565242 -5.095351 -37.158323 -7.162561 180.0 -29.771929 -59.236327 -150.635178 90.988314 5.780922 33.749658
5.2904 49.8169 -0.5115999999999999 -0.703012 32.243383 6.004444 -19.741412 19.740467 -0.0 -129.380575 -72.325469 -99.96565 171.228799 4.561317 -76.343304 35.699191 -28.937504 -70.092533 -8.773803 4.441702 -53.634064 3.880466 -1.813532 -50.084853 -64.063308 1.780948 -108.092851 -9.736416 -35.18372 12.109873 80.099585 32.004858 -115.696384 -145.477494 66.005992 124.257311 53.245893 -29.691496 -11.754201 -148.296598 -12.796595 104.626036 5.620518 30.431969 7.539399 -138.267423 -52.231232 106.036037 73.426623 -1.082101 -18.377004 -149.694109 63.654387 85.300276 -84.608332 -17.861593 -156.908636 34.296694 -31.706733 -4.380037 -99.684513 -25.840551 -106.660791 -168.427695 29.568608 -114.356053 24.589507 26.669126 -31.9645 -39.488899 8.684696 22.517438 -108.65081 -43.252177 -43.036228 -164.184528 31.894058 -158.268016 1.894585 18.489792 -1.137413 128.760487 -42.03927 -100.368892 -25.98296 3.518999 5.765354 -92.352376 -52.279616 -57.239459 152.172553 -49.304113 -141.471435 102.110252 74.210731 -78.886907 41.572345 75.21073 -79.129901 -0.256859 30.596854 13.813546 116.924834 60.518994 157.845171 146.855447 -28.676853 134.689018 -11.481878 1.748533 15.486472 51.914353 -58.517063 26.618326 -27.927013 80.524081 166.109273 96.340793 30.263262 145.574866 -56.532624 29.159433 -42.965162 36.590321 -4.058598 90.53012 51.16607 35.806921 -119.382731 60.305372 32.639811 107.669058
